<svg xmlns="http://www.w3.org/2000/svg" xmlns:xlink="http://www.w3.org/1999/xlink" width="400" height="129" viewBox="0 0 400 129">
  <defs>
    <clipPath id="clip-Photoshop">
      <rect width="400" height="129"/>
    </clipPath>
  </defs>
  <g id="Photoshop" clip-path="url(#clip-Photoshop)">
    <rect width="400" height="129" fill="#fff"/>
    <text id="Photoshop-2" data-name="Photoshop" transform="translate(97 84)" font-size="55" font-family="WulkanDisplaySemiBold, Wulkan Display"><tspan x="0" y="0">Photoshop</tspan></text>
    <path id="photoshop-icon" d="M6,4A2.015,2.015,0,0,0,4,6V44a2.015,2.015,0,0,0,2,2H44a2.015,2.015,0,0,0,2-2V6a2.015,2.015,0,0,0-2-2ZM6,6H44V44H6Zm12.586,8A14.135,14.135,0,0,0,15,14.416L15,36h2.465V26.83c.352.031.672.031,1.088.031a6.275,6.275,0,0,0,5.088-2.4,6.846,6.846,0,0,0,1.311-4.416,6.208,6.208,0,0,0-1.566-4.481A6.737,6.737,0,0,0,18.586,14Zm.391,1.641c2.751,0,3.646,1.982,3.646,4.189,0,3.04-1.632,4.641-4.031,4.641a8.382,8.382,0,0,1-.992-.062V15.8A5.023,5.023,0,0,1,18.977,15.641ZM31.717,20A4.233,4.233,0,0,0,27.3,24.307c0,1.767,1.127,3.117,3.219,4.434,1.626,1.028,2.057,1.864,2.057,3.053a2.152,2.152,0,0,1-2.355,2.248,5.2,5.2,0,0,1-2.59-.8L27,35.1a5.594,5.594,0,0,0,3.154.9C32.81,36,35,34.49,35,31.373c0-2.152-1.459-3.6-3.316-4.756-1.594-1.027-1.992-1.638-1.992-2.666a1.931,1.931,0,0,1,2.057-1.99,3.745,3.745,0,0,1,2.158.707L34.57,20.8A5.236,5.236,0,0,0,31.717,20Z" transform="translate(35 40)"/>
  </g>
</svg>
