<svg xmlns="http://www.w3.org/2000/svg" width="616" height="58.264" viewBox="0 0 616 58.264">
  <path id="portfolio-logo" d="M308.276,59.914h-21.17V3.316h21.17Zm-19.1-2.067h17.036V5.384H289.173Zm48.56,2.067H316.988V3.316H360.33a26,26,0,0,1,17.424,4.912,19.058,19.058,0,0,1,6.115,15.783,20.107,20.107,0,0,1-4.5,13.955c-3.792,4.35-10.1,6.591-18.752,6.669-2.179.058-18.508,0-22.87,0Zm-18.689-2.067h16.622v-15.3H336.7c.211,0,21.41.066,23.862,0,8.059-.07,13.852-2.067,17.238-5.967a18.156,18.156,0,0,0,3.969-12.574A17.137,17.137,0,0,0,376.4,9.812a24.094,24.094,0,0,0-16.1-4.433H319.056Zm36.9-25.925H335.525V16.515h20.55a8.729,8.729,0,0,1,7.856,3.006,8.271,8.271,0,0,1,1.166,4.767,8.779,8.779,0,0,1-.972,4.474,8.952,8.952,0,0,1-8.187,3.142Zm-18.346-2.067h18.346c3.391,0,5.491-.707,6.421-2.163a6.866,6.866,0,0,0,.674-3.4,6.415,6.415,0,0,0-.769-3.548l-.025-.037c-.984-1.447-2.94-2.121-6.165-2.121H337.592Zm84.008,30.9c-18.565,0-29.647-4.61-33.868-14.092a24.541,24.541,0,0,1-1.4-5.681l-.182-1.191H408.24l.145.868a5.785,5.785,0,0,0,1.092,2.423c.872,1.054,3.783,2.824,13.442,2.824,11.611,0,11.611-2.038,11.611-3.134,0-1.848-1.344-2.481-10.813-3.49l-1.8-.17c-3.564-.335-8.071-.761-10.13-.939-17.366-1.571-25.119-6.967-25.119-17.49,0-11.052,13.194-18.193,33.616-18.193,16.659,0,27.393,4.391,31.9,13.062a20.14,20.14,0,0,1,2.121,6.459l.145,1.162H432.334l-.091-.934a3.524,3.524,0,0,0-.893-1.96c-.827-1.108-3.44-2.94-11.553-2.94-9.961,0-11.334,1.274-11.334,2.646,0,1.832,3.147,2.481,13.232,3.56,4.205.343,10.966,1.038,13.281,1.319,14.559,1.58,21.055,6.843,21.055,17.073C456.035,50.511,450.06,60.749,421.6,60.749Zm-33.033-18.9a18.835,18.835,0,0,0,1.063,3.986c3.845,8.638,14.307,12.843,31.971,12.843,14.77,0,32.38-2.894,32.38-16.75,0-9.068-5.747-13.558-19.223-15.018-2.315-.281-9.035-.972-13.231-1.319C410.775,24.429,406.4,23.808,406.4,19.98c0-3.961,4.71-4.714,13.4-4.714,6.868,0,11.3,1.24,13.186,3.742a6.149,6.149,0,0,1,1.141,2.092h17.92a18.593,18.593,0,0,0-1.7-4.594c-4.135-7.935-14.236-11.954-30.064-11.954-19.165,0-31.549,6.33-31.549,16.126,0,9.345,6.951,13.959,23.234,15.431,2.067.178,6.57.6,10.143.943l1.811.17c8.795.926,12.673,1.505,12.673,5.545,0,4.35-5.016,5.2-13.678,5.2-8.013,0-13.074-1.2-15.03-3.572a7.659,7.659,0,0,1-1.34-2.543ZM495.311,60.679c-21.584,0-33.492-8.729-33.492-24.582V3.316h20.889V36.1c0,5.437,4.867,8.555,13.347,8.555,8.1,0,13.136-3.254,13.136-8.485V3.316h20.674V37.834c.021,14.517-12.586,22.845-34.567,22.845Zm-31.425-55.3V36.1c0,19.591,19.674,22.514,31.425,22.514,12.148,0,32.521-2.7,32.521-20.778V5.384H511.292V36.167c0,6.409-5.971,10.552-15.2,10.552-9.651,0-15.415-3.969-15.415-10.622V5.384Zm153.589,54.53H597.76V34.36L586.58,59.914h-17.2l-11.065-25.5v25.5H538.533V3.316h26.025l13.521,31.206L592.253,3.316H617.5Zm-17.648-2.067h15.58V5.384h-21.84L578.012,39.616,563.185,5.384h-22.6V57.846h15.65V24.462l14.472,33.4h14.472L599.8,24.511ZM20.33,4.35H1.5V58.88H53.533V44.363H20.33Zm71.21-1.24C67.5,3.109,54.864,14.5,54.864,31.226c0,18.9,13.269,28.481,36.676,28.481,25.768,0,36.606-11.114,36.606-28.481C128.146,13.591,115.919,3.1,91.54,3.1Zm-.07,14.17a39,39,0,0,1,4.9.285l-21.05,21.05a16.713,16.713,0,0,1-1.422-7.162c0-8.555,4.309-14.182,17.577-14.182Zm.07,28.481a39.1,39.1,0,0,1-4.718-.265L107.91,24.408a16.431,16.431,0,0,1,1.344,7.029c0,8.323-3.969,14.315-17.714,14.315Zm73.914-7.443h19.38A8.852,8.852,0,0,1,183.1,42a20.076,20.076,0,0,1-14.311,4.445A18.244,18.244,0,0,1,154.41,41.65a15.435,15.435,0,0,1-2.642-9.8,15.078,15.078,0,0,1,2.849-10.209c2.708-3.06,7.294-4.379,14.034-4.379a19.128,19.128,0,0,1,12.156,3.126,7.442,7.442,0,0,1,2.431,3.473h17.974a18.524,18.524,0,0,0-1.6-6.529c-4.3-8.753-14.311-13.963-31.326-13.963-14.8,0-24.73,4.515-30.217,11.325a27.162,27.162,0,0,0-5.28,17.019,28.663,28.663,0,0,0,5.16,17.511c5.421,7.029,15.076,10.486,26.678,10.486A33.336,33.336,0,0,0,186.3,53.6l.488,5.276h14.931v-32.3H165.455ZM244.1,3.1c-24.032,0-36.676,11.391-36.676,28.117,0,18.9,13.265,28.481,36.676,28.481,25.772,0,36.61-11.114,36.61-28.481C280.7,13.591,268.478,3.1,244.1,3.1Zm-.066,14.17a39.729,39.729,0,0,1,4.767.273L227.829,38.52a16.773,16.773,0,0,1-1.377-7.066c-.017-8.555,4.309-14.182,17.577-14.182Zm.066,28.481a38.987,38.987,0,0,1-4.842-.281L260.411,24.3a16.339,16.339,0,0,1,1.393,7.141c.008,8.315-3.945,14.307-17.71,14.307Z" transform="translate(-1.5 -2.485)" fill="#fff"/>
</svg>
