<svg xmlns="http://www.w3.org/2000/svg" xmlns:xlink="http://www.w3.org/1999/xlink" width="400" height="129" viewBox="0 0 400 129">
  <defs>
    <clipPath id="clip-Wix">
      <rect width="400" height="129"/>
    </clipPath>
  </defs>
  <g id="Wix" clip-path="url(#clip-Wix)">
    <rect width="400" height="129" fill="#fff"/>
    <text id="Website" transform="translate(154.167 84)" font-size="55" font-family="WulkanDisplaySemiBold, Wulkan Display"><tspan x="0" y="0">Website</tspan></text>
    <path id="wix-icons" d="M62.018,9.959a13.146,13.146,0,0,0-2.675.145l11.25,17.183-11.25,16.9s5.061.859,7.311-1.432c1.406-1.432,2.25-2.865,7.031-9.738.844-1.432,1.692,0,1.692,0,4.219,5.728,5.343,8.02,7.311,9.738,2.531,2,7.311,1.432,7.311,1.432l-11.25-16.9L89.72,10.1s-4.781-.859-7.031,1.432C81,13.254,79.315,15.545,75.377,21.559c0,0-.848,1.432-1.692,0-3.937-5.728-5.624-8.305-7.311-10.023A6.546,6.546,0,0,0,62.018,9.959Zm-60.837.117A8.46,8.46,0,0,0,0,10.1L9,44.47a14.945,14.945,0,0,0,4.219-.57c1.969-.859,2.814-1.722,3.939-6.3,1.125-4.009,3.938-16.324,4.219-17.183.562-2,1.41-2,1.972,0,.281.859,3.094,12.887,4.219,17.183,1.125,4.582,1.964,5.445,3.933,6.3a9.945,9.945,0,0,0,4.5.57L45,10.1c-3.094-.286-6.75,1.43-7.031,4.866L33.19,33.3,29.251,18.41c-.844-4.3-2.815-6.589-6.471-6.589s-5.34,2.007-6.465,6.589L12.376,33.3,7.592,14.97C6.853,11.713,3.965,10.209,1.181,10.076Zm53.943.028a11.965,11.965,0,0,0-3.653.57c-1.688.859-2.252,2.579-2.252,6.874a7.286,7.286,0,0,1,2.252-1.432C55.409,14.685,55.124,11.822,55.124,10.1Zm-.28,5.728v.218C54.912,15.925,54.928,15.832,54.844,15.832Zm0,.218a3.5,3.5,0,0,1-1.686,1.214,9.913,9.913,0,0,1-2.532,1.147c-1.969.859-1.686,2-1.686,4.866V44.47a6.666,6.666,0,0,0,3.653-.57c1.969-.859,2.252-2.008,2.252-6.3Z" transform="translate(51.833 37.27)"/>
  </g>
</svg>
