<svg xmlns="http://www.w3.org/2000/svg" xmlns:xlink="http://www.w3.org/1999/xlink" width="544" height="175" viewBox="0 0 544 175">
  <defs>
    <clipPath id="clip-woocommerce">
      <rect width="544" height="175"/>
    </clipPath>
  </defs>
  <g id="woocommerce" clip-path="url(#clip-woocommerce)">
    <rect width="544" height="175" fill="#fff"/>
    <text id="Woocommerce-2" data-name="Woocommerce" transform="translate(133.083 107)" font-size="55" font-family="WulkanDisplaySemiBold, Wulkan Display"><tspan x="0" y="0">Woocommerce</tspan></text>
    <path id="woocommerce-icons" d="M9.438,4A9.449,9.449,0,0,0,0,13.438V38.6a9.449,9.449,0,0,0,9.438,9.438H33.424l20.055,6.292L52,48.042H66.063A9.449,9.449,0,0,0,75.5,38.6V13.438A9.449,9.449,0,0,0,66.063,4Zm0,6.292H66.063a3.151,3.151,0,0,1,3.146,3.146V38.6a3.151,3.151,0,0,1-3.146,3.146h-22l.768,3.275-9.517-2.986-.922-.289H9.438A3.151,3.151,0,0,1,6.292,38.6V13.438A3.151,3.151,0,0,1,9.438,10.292Zm22.8,3.146a2.37,2.37,0,0,0-2.175,1.456,45.406,45.406,0,0,0-2.875,12.368,73.057,73.057,0,0,1-2.464-8.78A2.357,2.357,0,0,0,22.641,16.6a2.333,2.333,0,0,0-2.409,1.456L15.926,28.583A83.439,83.439,0,0,1,14.156,15.7a2.358,2.358,0,0,0-4.713.2c.4,9.607,3.493,20.536,3.625,20.995a2.361,2.361,0,0,0,4.455.246l4.405-10.765c1.192,3.81,2.971,8.348,5.315,11.33a2.369,2.369,0,0,0,1.856.9,2.4,2.4,0,0,0,.768-.129,2.367,2.367,0,0,0,1.591-2.23c0-8.012,1.055-14.955,2.961-19.545a2.352,2.352,0,0,0-1.272-3.078A2.306,2.306,0,0,0,32.239,13.438Zm11.017,3.146c-3.442.013-6.641,3.345-7.6,8.073a11.011,11.011,0,0,0,1.229,8.1,5.79,5.79,0,0,0,3.7,2.593,5.494,5.494,0,0,0,1.057.1c3.445,0,6.681-3.32,7.643-8.067a11.01,11.01,0,0,0-1.229-8.1,5.794,5.794,0,0,0-3.7-2.593A5.422,5.422,0,0,0,43.255,16.583Zm16.516,0c-3.438.013-6.638,3.345-7.6,8.073a11.011,11.011,0,0,0,1.229,8.1,5.79,5.79,0,0,0,3.7,2.593,5.494,5.494,0,0,0,1.057.1c3.445,0,6.681-3.32,7.643-8.067a11.01,11.01,0,0,0-1.229-8.1,5.794,5.794,0,0,0-3.7-2.593A5.422,5.422,0,0,0,59.771,16.583Zm-16.46,4.725a.735.735,0,0,1,.117.012,1.283,1.283,0,0,1,.7.578,6.363,6.363,0,0,1,.529,4.559c-.588,2.919-2.325,4.415-3.146,4.27a1.271,1.271,0,0,1-.694-.578,6.362,6.362,0,0,1-.528-4.559C40.851,22.8,42.49,21.308,43.311,21.308Zm16.516,0a.735.735,0,0,1,.117.012,1.283,1.283,0,0,1,.7.578,6.363,6.363,0,0,1,.528,4.559c-.588,2.919-2.347,4.415-3.146,4.27a1.271,1.271,0,0,1-.694-.578,6.362,6.362,0,0,1-.528-4.559C57.366,22.8,59.005,21.308,59.826,21.308Z" transform="translate(39.917 58.333)"/>
  </g>
</svg>
