<svg xmlns="http://www.w3.org/2000/svg" xmlns:xlink="http://www.w3.org/1999/xlink" width="400" height="129" viewBox="0 0 400 129">
  <defs>
    <clipPath id="clip-Wix_2">
      <rect width="400" height="129"/>
    </clipPath>
  </defs>
  <g id="Wix_2" data-name="Wix – 2" clip-path="url(#clip-Wix_2)">
    <rect width="400" height="129" fill="#fff"/>
    <text id="Wordpress" transform="translate(102.583 84)" font-size="55" font-family="WulkanDisplaySemiBold, Wulkan Display"><tspan x="0" y="0">Wordpress</tspan></text>
    <path id="wordpress-icons" d="M33.5,4A29.5,29.5,0,1,0,63,33.5,29.534,29.534,0,0,0,33.5,4Zm0,4.425a24.968,24.968,0,0,1,15.66,5.494,5.475,5.475,0,0,0-2.192,4.29c0,2.223,1.252,4.168,2.642,6.393a13.73,13.73,0,0,1,2.221,7.5A25.854,25.854,0,0,1,49.748,41l-2.78,9.17L37.1,20.709c1.668-.139,3.2-.277,3.2-.277a1.115,1.115,0,0,0-.138-2.221h-.138s-4.449.418-7.366.418c-2.64,0-7.225-.418-7.225-.418h-.138c-1.389,0-1.528,2.221-.138,2.221,0,0,1.389.138,2.918.277l4.307,11.673L26.4,50.31,16.4,20.571c1.668-.139,3.195-.277,3.195-.277a1.117,1.117,0,0,0-.138-2.224h-.138s-3.216.32-5.886.423A24.99,24.99,0,0,1,33.5,8.425ZM57.2,25.341a25.009,25.009,0,0,1-9.36,28.731L55.17,32.8A33.015,33.015,0,0,0,57.2,25.341Zm-47.707.936L19.836,54.522A25.068,25.068,0,0,1,9.488,26.278Zm24,9.582L41.37,57.3a25.085,25.085,0,0,1-15.248.17Z" transform="translate(28.417 31)"/>
  </g>
</svg>
